<svg width="101" height="101" viewBox="0 0 101 101" fill="none" xmlns="http://www.w3.org/2000/svg">
<g clip-path="url(#clip0)">
<path d="M42.4051 26.9975C46.7565 26.9975 50.2967 23.4574 50.2967 19.1061C50.2967 14.7547 46.7565 11.2145 42.4051 11.2145C38.0538 11.2145 34.5137 14.7547 34.5137 19.1061C34.5137 23.4574 38.0538 26.9975 42.4051 26.9975ZM42.4051 14.1441C45.1413 14.1441 47.3671 16.3699 47.3671 19.1061C47.3671 21.842 45.1413 24.0678 42.4051 24.0678C39.6692 24.0678 37.4434 21.842 37.4434 19.1061C37.4434 16.3701 39.6692 14.1441 42.4051 14.1441Z" fill="#786F6F"/>
<path d="M39.5021 85.5466C44.4818 85.5466 48.5331 81.4952 48.5331 76.5155C48.5331 71.5359 44.4818 67.4845 39.5021 67.4845C34.5224 67.4845 30.471 71.5359 30.471 76.5155C30.471 81.4952 34.5224 85.5466 39.5021 85.5466ZM39.5021 70.4142C42.8665 70.4142 45.6034 73.1513 45.6034 76.5155C45.6034 79.8798 42.8663 82.6169 39.5021 82.6169C36.1378 82.6169 33.4007 79.8798 33.4007 76.5155C33.4007 73.1513 36.1376 70.4142 39.5021 70.4142Z" fill="#786F6F"/>
<path d="M26.5682 25.904C21.2887 25.904 16.9936 30.1991 16.9936 35.4786C16.9936 40.7581 21.2887 45.0532 26.5682 45.0532C31.8477 45.0532 36.1428 40.7581 36.1428 35.4786C36.1428 30.1991 31.8477 25.904 26.5682 25.904ZM26.5682 42.1237C22.9041 42.1237 19.9233 39.1428 19.9233 35.4788C19.9233 31.8147 22.9043 28.8338 26.5682 28.8338C30.2321 28.8338 33.2131 31.8147 33.2131 35.4788C33.2131 39.1428 30.2323 42.1237 26.5682 42.1237Z" fill="#786F6F"/>
<path d="M23.826 68.3046C29.1055 68.3046 33.4006 64.0095 33.4006 58.73C33.4006 53.4505 29.1055 49.1554 23.826 49.1554C18.5465 49.1554 14.2514 53.4505 14.2514 58.73C14.2514 64.0095 18.5465 68.3046 23.826 68.3046ZM23.826 52.0849C27.4901 52.0849 30.4709 55.0657 30.4709 58.7298C30.4709 62.3938 27.4899 65.3747 23.826 65.3747C20.1621 65.3747 17.1811 62.3938 17.1811 58.7298C17.1811 55.0657 20.162 52.0849 23.826 52.0849Z" fill="#786F6F"/>
<path d="M33.3692 95.9857C34.164 96.132 34.9278 95.6036 35.0733 94.8077C35.2188 94.0119 34.6913 93.249 33.8954 93.1036C28.2808 92.0785 23.2582 89.2931 19.3705 85.0486C8.04659 72.6856 3.00484 59.3514 4.3851 45.4159C7.49972 13.9664 40.6643 -1.68742 71.2496 4.42992C75.3816 5.25628 76.991 8.62422 77.113 11.257C77.2339 13.8558 75.9615 17.3126 71.9775 18.5029C66.8301 20.0405 62.7602 22.2849 59.8809 25.1733C53.2818 31.7938 52.7101 42.9642 59.0114 50.4885C62.1229 54.2039 64.1133 58.7094 64.7817 63.5406C61.4645 71.0802 58.0724 79.6184 55.4472 87.5213C51.2295 91.0052 45.893 93.1164 40.3727 93.4769C39.5653 93.5296 38.9536 94.2267 39.0063 95.0341C39.0571 95.8089 39.7012 96.4036 40.4668 96.4036C40.4989 96.4036 40.5311 96.4027 40.5637 96.4003C45.317 96.09 49.9492 94.6085 53.9765 92.1535C53.1246 95.1214 54.5154 98.2306 57.3126 99.5747C60.2997 101.01 63.9159 99.8727 65.5459 96.9886C68.3666 91.9978 71.423 85.9404 74.3842 79.4713C74.7211 78.7358 74.3974 77.8665 73.6621 77.5298C72.9262 77.1928 72.0572 77.5167 71.7205 78.252C68.7934 84.6471 65.7762 90.6275 62.9956 95.5472C62.1212 97.0942 60.1827 97.703 58.5815 96.9343C57.0665 96.2062 56.3198 94.514 56.8062 92.9107C60.5876 80.4369 66.894 65.2535 72.6711 53.5129L80.5445 56.8832C78.7087 61.8859 76.6175 67.0949 74.4838 72.0337C74.1633 72.7765 74.5056 73.6384 75.2484 73.9589C75.9923 74.2798 76.8533 73.937 77.1738 73.1942C81.1929 63.8673 85.6786 52.2176 88.2963 42.4169C89.2268 42.0828 89.8993 41.4097 90.2557 40.5769L91.5235 37.6152C91.7952 36.9806 91.8551 36.3082 91.7366 35.6758C94.1748 34.1193 97.5877 31.343 99.3562 27.2114C101.541 22.1079 100.089 13.4617 99.0293 8.76211C98.8263 7.86173 98.1982 7.10705 97.3496 6.74377C96.5008 6.38049 95.5215 6.4467 94.7297 6.9215C90.5977 9.39902 83.3394 14.317 81.1548 19.42C79.3868 23.5499 79.7331 27.9344 80.2896 30.7731C79.7353 31.1326 79.2997 31.6477 79.0339 32.2688L77.7662 35.2305C77.4068 36.0697 77.3894 37.0178 77.7873 37.9181C73.8566 44.3593 69.9543 52.1768 66.8065 59.0358C65.7008 55.219 63.8239 51.6723 61.2577 48.6079C58.8005 45.6737 57.5546 42.2347 57.5546 38.3861C57.5546 30.0807 62.6893 24.3356 72.8162 21.3103C77.4281 19.9325 80.2634 15.9331 80.0398 11.1215C79.8548 7.14181 77.2427 2.64126 71.8242 1.55748C39.5819 -4.8913 4.76459 11.8648 1.4695 45.1273C0.00368702 59.9268 5.29954 74.0241 17.2102 87.0275C21.533 91.747 27.1207 94.8449 33.3692 95.9857ZM80.0341 39.8613C81.9538 40.683 83.4194 41.3105 85.3391 42.1322C84.3815 45.6542 83.0843 49.7471 81.5388 54.1219L73.9822 50.8872C76.0814 46.7483 78.1472 42.9845 80.0341 39.8613ZM88.8301 36.4621L87.5624 39.4238C87.4598 39.6628 87.1921 39.7386 86.9911 39.6525L80.6878 36.9543C80.4835 36.8668 80.3579 36.6195 80.4591 36.3832L81.7269 33.4213C81.8257 33.191 82.087 33.102 82.2985 33.1928L88.6014 35.8908C88.8046 35.9779 88.9296 36.2299 88.8301 36.4621ZM83.8478 20.5728C84.4892 19.0743 86.9753 14.9959 96.1842 9.46484C98.5398 19.9466 97.3041 24.5596 96.6627 26.0583C95.1502 29.5918 92.1077 31.9908 89.994 33.3119C89.9157 33.2707 89.8354 33.2324 89.754 33.1977L83.4509 30.4994H83.4507C83.3692 30.4647 83.2864 30.433 83.2024 30.4049C82.6997 27.9633 82.3355 24.1059 83.8478 20.5728Z" fill="#786F6F"/>
</g>
<defs>
<clipPath id="clip0">
<rect width="100" height="100" fill="white" transform="translate(0.861694 0.19458)"/>
</clipPath>
</defs>
</svg>
