<svg width="55" height="55" viewBox="0 0 55 55" fill="none" xmlns="http://www.w3.org/2000/svg">
<g clip-path="url(#clip0)">
<path d="M13.2361 26.1241L38.2127 1.21661C39.031 0.401021 40.3559 0.402392 41.1729 1.22083C41.9892 2.03915 41.9871 3.36479 41.1686 4.18101L17.6787 27.6061L41.1695 51.031C41.9878 51.8473 41.9899 53.1721 41.1737 53.9905C40.7642 54.4008 40.2276 54.6059 39.6911 54.6059C39.156 54.6059 38.6216 54.4022 38.2128 53.9948L13.2361 29.0879C12.8419 28.6957 12.6208 28.1621 12.6208 27.6061C12.6208 27.05 12.8426 26.517 13.2361 26.1241Z" fill="#786F6F"/>
</g>
<defs>
<clipPath id="clip0">
<rect width="54" height="54" fill="white" transform="matrix(-1 0 0 1 54.2026 0.605957)"/>
</clipPath>
</defs>
</svg>
