<svg width="100" height="101" viewBox="0 0 100 101" fill="none" xmlns="http://www.w3.org/2000/svg">
<g clip-path="url(#clip0)">
<path d="M94.4603 26.7417C94.2238 25.9688 93.4052 25.5332 92.6308 25.7705C91.8571 26.0078 91.4223 26.8271 91.6595 27.6008C92.2714 29.5966 92.5812 31.7611 92.5812 34.0346C92.5812 45.9724 84.079 58.5983 76.0361 58.6082C76.033 58.6082 76.0292 58.6082 76.0261 58.6082C76.0231 58.6082 76.02 58.6082 76.017 58.6082C71.3203 58.6021 66.2064 54.2518 62.8197 47.4487C67.8574 41.0262 70.9495 32.1105 70.9495 24.3133C70.9495 21.7315 70.6261 19.2443 70.0027 16.9127C71.8887 16.1757 73.909 15.8019 76.0269 15.8019C81.1813 15.8019 85.7109 17.9908 88.7817 21.9649C89.2769 22.6058 90.197 22.7233 90.8371 22.2289C91.4772 21.7338 91.5947 20.8144 91.1003 20.1736C87.5145 15.5334 82.0206 12.8722 76.0269 12.8722C73.5962 12.8722 71.2677 13.2934 69.0857 14.125C65.6029 5.30614 57.7072 0.190632 48.7564 0.190632C44.7876 0.190632 40.9454 1.21602 37.6465 3.15618C36.9491 3.56588 36.7157 4.46386 37.1261 5.16118C37.5358 5.85851 38.4338 6.09121 39.1311 5.68151C41.9807 4.00609 45.3094 3.12032 48.7564 3.12032C59.9182 3.12032 68.0191 12.033 68.0191 24.3133C68.0191 36.8697 58.9508 52.7984 48.7579 52.7991C48.7579 52.7991 48.7572 52.7991 48.7564 52.7991C48.7564 52.7991 48.7556 52.7991 48.7549 52.7991C38.5628 52.7976 29.4945 36.869 29.4945 24.3133C29.4945 18.6523 31.1439 13.6519 34.2651 9.85174C34.7786 9.22689 34.6878 8.30373 34.0629 7.79028C33.4373 7.27682 32.5142 7.36684 32.0007 7.99245C29.0466 11.589 27.2537 16.0941 26.7296 21.1532C25.3631 20.8259 23.9517 20.6565 22.5097 20.6565C12.6022 20.6565 4.68748 28.4141 4.68748 40.0024C4.68748 44.5464 5.96311 49.4956 8.2794 53.9397C8.65324 54.6569 9.53825 54.9354 10.2554 54.5615C10.9733 54.1877 11.2518 53.3027 10.8772 52.5855C8.77531 48.5519 7.61717 44.0833 7.61717 40.0024C7.61717 30.49 13.8801 23.5862 22.5097 23.5862C23.9052 23.5862 25.2655 23.7731 26.5678 24.1363C26.519 32.8231 30.262 42.4827 35.7971 48.7792C33.0345 56.5879 27.5345 62.1734 22.5097 62.1734C19.1589 62.1734 16.3299 59.8556 14.5469 57.9108C13.9999 57.3142 13.0737 57.2746 12.4771 57.8208C11.8805 58.3678 11.8408 59.2948 12.3871 59.8907C14.5828 62.2855 16.9639 63.8839 19.397 64.6255L18.3273 68.8018C18.09 69.7273 18.7897 70.6306 19.7464 70.6306H21.8597C23.6099 72.7889 23.4817 75.975 21.4737 77.983C18.1862 81.2705 18.1862 86.6203 21.4737 89.9078C23.6191 92.0539 23.6191 95.5444 21.4737 97.6898C20.9015 98.262 20.9015 99.1897 21.4737 99.7611C22.0459 100.333 22.9736 100.333 23.5451 99.7611C26.8333 96.4736 26.8333 91.1239 23.5451 87.8364C21.3997 85.691 21.3997 82.1998 23.5451 80.0544C26.0895 77.5108 26.6632 73.7327 25.2701 70.6306H25.2731C26.2283 70.6306 26.9295 69.728 26.6922 68.8018L25.6241 64.6323C31.1302 62.9607 35.6102 57.0853 38.0569 51.0688C40.358 53.1295 42.8177 54.5486 45.3018 55.2413C45.2217 55.4694 45.3285 55.0773 43.8354 60.9046C43.5982 61.8301 44.2978 62.7334 45.2545 62.7334H47.3144C47.6135 64.5293 48.4589 66.1849 49.7719 67.4987C50.8659 68.5928 51.4763 70.0416 51.4946 71.5858C50.769 71.0037 49.8482 70.655 48.8479 70.655C46.5118 70.655 44.6106 72.5555 44.6106 74.8924C44.6106 77.0744 46.27 78.8772 48.3932 79.1045C45.2942 82.2463 45.3071 87.3237 48.4321 90.4495C50.4333 92.4507 50.4333 95.6886 48.4321 97.6898C47.8599 98.262 47.8599 99.1897 48.4321 99.7619C49.0044 100.333 49.9321 100.333 50.5035 99.7619C53.6423 96.6232 53.6423 91.516 50.5035 88.3773C48.5077 86.3815 48.5077 83.1329 50.5035 81.1363C51.7685 79.8721 52.6008 78.2913 52.9282 76.5739C53.9017 75.1327 54.4243 73.4351 54.4243 71.6575C54.4243 69.3038 53.508 67.0913 51.844 65.4273C51.0872 64.6705 50.5623 63.7435 50.3044 62.7334H52.2583C53.2135 62.7334 53.9146 61.8308 53.6774 60.9046C52.1797 55.0605 52.2911 55.4679 52.211 55.2413C55.1674 54.4166 58.0871 52.5619 60.749 49.8252C63.9213 55.7021 68.2648 59.7251 72.7814 61.0564C72.7257 61.2518 72.9576 60.3522 71.5622 65.7981C71.3249 66.7236 72.0245 67.6261 72.9813 67.6261H73.4054C72.4243 70.1774 72.9408 73.2017 75.0328 75.2929C76.6937 76.9538 76.6937 79.6569 75.0328 81.3178C73.9151 82.4355 73.1766 83.8294 72.8798 85.3454C70.8633 88.3643 71.1525 92.5292 73.8678 95.2453C74.7978 96.1753 75.3097 97.4113 75.3097 98.7258C75.3097 99.5345 75.9659 100.191 76.7746 100.191C77.5833 100.191 78.2394 99.5345 78.2394 98.7258C78.2394 96.6285 77.4231 94.6571 75.9399 93.1739C75.1175 92.3515 74.6216 91.2887 74.5186 90.1435C75.1213 90.5311 75.8392 90.7562 76.6083 90.7562C78.7445 90.7562 80.4825 89.0182 80.4825 86.882C80.4825 85.0128 79.1534 83.4495 77.3903 83.0863C79.8912 80.2856 79.8363 75.9528 77.1042 73.2215C75.5852 71.7025 75.441 69.313 76.7342 67.6261H79.0703C80.0255 67.6261 80.7266 66.7243 80.4893 65.7981L79.2976 61.1472C79.2892 61.1152 79.2786 61.0854 79.2694 61.0542C88.4224 58.345 95.5109 45.1011 95.5109 34.0346C95.5109 31.4704 95.1576 29.0168 94.4603 26.7417ZM21.6339 67.7009L22.2473 65.3075C22.3167 65.0367 22.7035 65.0359 22.773 65.3075L23.3864 67.7009H21.6339ZM48.9807 76.1924C48.1277 76.2771 47.4182 75.5355 47.5586 74.6734C47.6448 74.1454 48.0614 73.7128 48.5855 73.6106C49.3683 73.458 50.1655 74.0096 50.1549 74.9748C50.148 75.6255 49.5628 76.1352 48.9807 76.1924ZM47.142 59.8037L48.0446 56.282C48.233 55.545 49.2798 55.545 49.469 56.282L50.3715 59.8037H47.142ZM77.536 87.0643C77.4673 87.4297 77.1759 87.7296 76.8112 87.8059C76.2024 87.9333 75.663 87.4694 75.663 86.8789C75.6622 86.3456 76.078 86.0038 76.4679 85.9474C77.1126 85.8535 77.6581 86.4158 77.536 87.0643ZM74.8688 64.6964L75.592 61.8743C75.7065 61.428 76.3451 61.4272 76.4603 61.8743L77.1828 64.6964H74.8688Z" fill="#786F6F"/>
</g>
<defs>
<clipPath id="clip0">
<rect width="100" height="100" fill="white" transform="translate(0 0.385941)"/>
</clipPath>
</defs>
</svg>
