<svg height="512pt" viewBox="0 -26 512 512" width="512pt" xmlns="http://www.w3.org/2000/svg"><path d="m70 360h45.230469l-34.515625 86.285156c-1.648438 4.125-.382813 8.839844 3.109375 11.582032 3.492187 2.738281 8.371093 2.851562 11.988281.269531l137.390625-98.136719h208.796875c38.597656 0 70-31.402344 70-70v-220c0-38.597656-31.402344-70-70-70h-372c-38.597656 0-70 31.402344-70 70v80c0 5.523438 4.476562 10 10 10s10-4.476562 10-10v-80c0-27.570312 22.429688-50 50-50h372c27.570312 0 50 22.429688 50 50v220c0 27.570312-22.429688 50-50 50h-212c-2.085938 0-4.117188.652344-5.8125 1.863281l-112.226562 80.160157 27.324218-68.308594c1.230469-3.082032.855469-6.574219-1.003906-9.320313-1.859375-2.75-4.964844-4.394531-8.28125-4.394531h-60c-27.570312 0-50-22.429688-50-50v-60c0-5.523438-4.476562-10-10-10s-10 4.476562-10 10v60c0 38.597656 31.402344 70 70 70zm0 0"/><path d="m20 190c0 5.523438-4.476562 10-10 10s-10-4.476562-10-10 4.476562-10 10-10 10 4.476562 10 10zm0 0"/></svg>