<svg width="100" height="101" viewBox="0 0 100 101" fill="none" xmlns="http://www.w3.org/2000/svg">
<g clip-path="url(#clip0)">
<path d="M64.7461 49.0364H42.5781V34.8839C42.5781 31.8706 39.6021 29.7452 36.751 30.7294L3.36992 42.2402C1.3543 42.9353 0 44.8345 0 46.9665V92.6888C0 96.7275 3.28555 100.013 7.32422 100.013H64.7461C67.1691 100.013 69.1406 98.0415 69.1406 95.6185V53.431C69.1406 51.0079 67.1691 49.0364 64.7461 49.0364ZM4.325 45.0099C38.8914 33.4732 37.7617 32.7839 39.0342 33.6913C40.1414 34.4804 39.4357 34.7142 39.6486 49.0364H4.99961C2.66445 49.0364 2.1332 45.7655 4.325 45.0099ZM64.7461 97.0833H7.32422C4.90117 97.0833 2.92969 95.1118 2.92969 92.6888V51.5157C4.14609 52.0714 64.7266 51.9663 64.7461 51.9661C65.5539 51.9661 66.2109 52.6232 66.2109 53.431V62.8386H50.9439C44.9311 62.8386 40.0391 67.7306 40.0391 73.7435C40.0391 79.7564 44.9311 84.6484 50.9439 84.6484H66.2109V95.6185C66.2109 96.4263 65.5539 97.0833 64.7461 97.0833ZM66.2109 65.7683V81.7187H50.9439C46.5463 81.7187 42.9688 78.1411 42.9688 73.7435C42.9688 69.3458 46.5463 65.7683 50.9439 65.7683H66.2109Z" fill="#786F6F"/>
<path d="M79.0039 42.2005C90.5811 42.2005 100 32.7816 100 21.2044C100 9.62726 90.5811 0.208313 79.0039 0.208313C67.4268 0.208313 58.0078 9.62726 58.0078 21.2044C58.0078 32.7816 67.4268 42.2005 79.0039 42.2005ZM79.0039 3.138C88.9658 3.138 97.0703 11.2425 97.0703 21.2044C97.0703 31.1663 88.9658 39.2708 79.0039 39.2708C69.042 39.2708 60.9375 31.1663 60.9375 21.2044C60.9375 11.2425 69.042 3.138 79.0039 3.138Z" fill="#786F6F"/>
<path d="M75.6914 22.7429H77.5391V29.5298H70.8332V32.4595H77.5391V35.8528H80.4687V32.4595H82.3164C85.8031 32.4595 88.6395 29.623 88.6395 26.1362C88.6395 22.6495 85.8031 19.8132 82.3164 19.8132H80.4687V13.0263H87.1746V10.0966H80.4687V6.55597H77.5391V10.0966H75.6914C72.2047 10.0966 69.3683 12.9331 69.3683 16.4198C69.3683 19.9066 72.2047 22.7429 75.6914 22.7429ZM82.3164 22.7429C84.1875 22.7429 85.7098 24.2652 85.7098 26.1362C85.7098 28.0075 84.1875 29.5298 82.3164 29.5298H80.4687V22.7429H82.3164ZM75.6914 13.0263H77.5391V19.8132H75.6914C73.8203 19.8132 72.298 18.2909 72.298 16.4198C72.298 14.5485 73.8203 13.0263 75.6914 13.0263Z" fill="#786F6F"/>
<path d="M34.9371 26.9911L34.0826 24.1888L26.8887 26.3821C33.0883 16.3099 44.491 10.1618 56.4846 10.7999L56.6402 7.87433C43.5271 7.17433 31.175 13.7607 24.3719 24.8749L22.2391 17.8794L19.4367 18.7339L23.0584 30.6124L34.9371 26.9911Z" fill="#786F6F"/>
<path d="M77.908 52.8829L79.1947 55.5151L86.3697 52.0075C84.2953 59.6681 79.4338 66.4222 72.7305 70.83L74.3398 73.2778C81.3457 68.6712 86.5047 61.7099 88.9084 53.7798L91.8867 59.8724L94.519 58.5857L89.0648 47.4288L77.908 52.8829Z" fill="#786F6F"/>
<path d="M47.5912 73.7435C47.5912 76.1665 49.5627 78.138 51.9858 78.138C54.4088 78.138 56.3803 76.1665 56.3803 73.7435C56.3803 71.3204 54.4088 69.3489 51.9858 69.3489C49.5627 69.3489 47.5912 71.3204 47.5912 73.7435ZM53.4506 73.7435C53.4506 75.6821 50.5209 75.6802 50.5209 73.7435C50.5209 72.9357 53.4506 71.8068 53.4506 73.7435Z" fill="#786F6F"/>
</g>
<defs>
<clipPath id="clip0">
<rect width="100" height="100" fill="white" transform="translate(0 0.110657)"/>
</clipPath>
</defs>
</svg>
