<svg width="25" height="25" viewBox="0 0 25 25" fill="none" xmlns="http://www.w3.org/2000/svg">
<path d="M19.6321 15.4454C19.1442 14.9382 18.5558 14.667 17.9322 14.667C17.3136 14.667 16.7201 14.9332 16.2122 15.4404L14.6229 17.0223C14.4922 16.952 14.3614 16.8867 14.2357 16.8215C14.0546 16.7311 13.8836 16.6457 13.7378 16.5553C12.2491 15.6112 10.8962 14.3808 9.59868 12.7888C8.97002 11.9954 8.54757 11.3274 8.24078 10.6495C8.65318 10.2728 9.03541 9.88112 9.40757 9.50448C9.54839 9.36386 9.68921 9.21822 9.83003 9.07761C10.8862 8.023 10.8862 6.65703 9.83003 5.60242L8.45704 4.23143C8.30113 4.07575 8.1402 3.91504 7.98932 3.75434C7.68756 3.44298 7.37072 3.12158 7.04382 2.82026C6.55598 2.33815 5.97259 2.08203 5.35902 2.08203C4.74545 2.08203 4.15199 2.33815 3.64907 2.82026C3.64404 2.82528 3.64404 2.82528 3.63901 2.8303L1.92906 4.55283C1.28532 5.19564 0.918179 5.97907 0.837711 6.88804C0.717009 8.35445 1.14953 9.72042 1.48146 10.6143C2.2962 12.8089 3.51328 14.8428 5.32884 17.0223C7.53166 19.6488 10.1821 21.7229 13.2097 23.1843C14.3664 23.7317 15.9104 24.3795 17.6354 24.49C17.7411 24.495 17.8517 24.5 17.9523 24.5C19.114 24.5 20.0897 24.0832 20.8542 23.2546C20.8592 23.2445 20.8693 23.2395 20.8743 23.2295C21.1358 22.9131 21.4376 22.6268 21.7544 22.3205C21.9707 22.1146 22.1919 21.8987 22.4082 21.6727C22.9061 21.1554 23.1676 20.5528 23.1676 19.9351C23.1676 19.3123 22.9011 18.7147 22.3931 18.2125L19.6321 15.4454ZM21.4325 20.7336C21.4275 20.7336 21.4275 20.7386 21.4325 20.7336C21.2364 20.9445 21.0352 21.1353 20.819 21.3462C20.4921 21.6576 20.1601 21.984 19.8483 22.3506C19.3404 22.893 18.7419 23.1491 17.9573 23.1491C17.8819 23.1491 17.8014 23.1491 17.726 23.1441C16.2323 23.0487 14.8442 22.4661 13.8031 21.969C10.9566 20.5929 8.45704 18.6394 6.37996 16.1636C4.66498 14.0996 3.51831 12.1912 2.75889 10.1423C2.29117 8.8918 2.12017 7.91754 2.19561 6.99852C2.2459 6.41095 2.47222 5.92382 2.88965 5.507L4.60463 3.79452C4.85106 3.56351 5.11258 3.43796 5.36907 3.43796C5.68592 3.43796 5.94241 3.62879 6.10335 3.78949C6.10838 3.79452 6.1134 3.79954 6.11843 3.80456C6.42522 4.09081 6.71692 4.38711 7.0237 4.70349C7.17961 4.86419 7.34054 5.02489 7.50148 5.19062L8.87447 6.56161C9.40757 7.09394 9.40757 7.58609 8.87447 8.11842C8.72862 8.26405 8.5878 8.40969 8.44195 8.5503C8.01949 8.98219 7.61715 9.38395 7.17961 9.77566C7.16955 9.78571 7.15949 9.79073 7.15446 9.80077C6.72195 10.2327 6.80241 10.6545 6.89294 10.9408C6.89797 10.9558 6.903 10.9709 6.90803 10.986C7.26511 11.8497 7.76803 12.6633 8.53248 13.6325L8.53751 13.6375C9.92558 15.345 11.3891 16.6758 13.0035 17.6953C13.2097 17.8258 13.4209 17.9313 13.6221 18.0318C13.8031 18.1221 13.9741 18.2075 14.12 18.2979C14.1401 18.308 14.1602 18.323 14.1803 18.3331C14.3513 18.4184 14.5123 18.4586 14.6782 18.4586C15.0957 18.4586 15.3572 18.1975 15.4427 18.1121L17.1627 16.3946C17.3337 16.2238 17.6053 16.0179 17.9221 16.0179C18.2339 16.0179 18.4904 16.2138 18.6463 16.3845C18.6513 16.3896 18.6513 16.3896 18.6564 16.3946L21.4275 19.1617C21.9455 19.6739 21.9455 20.2012 21.4325 20.7336Z" fill="#786F6F"/>
<path d="M13.6773 6.36567C14.995 6.58663 16.192 7.20935 17.1475 8.16353C18.1031 9.1177 18.7217 10.3129 18.948 11.6287C19.0033 11.9601 19.29 12.1911 19.6169 12.1911C19.6571 12.1911 19.6923 12.1861 19.7326 12.1811C20.1047 12.1208 20.3512 11.7693 20.2908 11.3977C20.0192 9.8057 19.2649 8.35436 18.1132 7.20433C16.9615 6.05431 15.508 5.30101 13.9137 5.02983C13.5416 4.96957 13.1945 5.21564 13.1292 5.58224C13.0638 5.94885 13.3052 6.3054 13.6773 6.36567Z" fill="#786F6F"/>
<path d="M24.6009 11.2019C24.1533 8.5804 22.9161 6.19497 21.0151 4.29668C19.114 2.39838 16.7251 1.16298 14.0998 0.716024C13.7327 0.650739 13.3857 0.901837 13.3203 1.26844C13.2599 1.64006 13.5064 1.98658 13.8785 2.05186C16.2222 2.4486 18.3596 3.55845 20.0595 5.25085C21.7594 6.94827 22.8658 9.08259 23.2631 11.4228C23.3185 11.7543 23.6051 11.9853 23.932 11.9853C23.9723 11.9853 24.0075 11.9803 24.0477 11.9752C24.4148 11.92 24.6663 11.5685 24.6009 11.2019Z" fill="#786F6F"/>
</svg>
