<svg width="116" height="116" viewBox="0 0 116 116" fill="none" xmlns="http://www.w3.org/2000/svg">
<g clip-path="url(#clip0)">
<path d="M99.0078 16.9472C88.1473 6.08714 73.7078 0.105957 58.349 0.105957C42.9902 0.105957 28.5507 6.08714 17.6902 16.9472C6.83018 27.8077 0.848999 42.2472 0.848999 57.606C0.848999 72.9647 6.83018 87.4042 17.6902 98.2647C28.5507 109.125 42.9902 115.106 58.349 115.106C73.7078 115.106 88.1473 109.125 99.0078 98.2647C109.868 87.4042 115.849 72.9647 115.849 57.606C115.849 42.2472 109.868 27.8077 99.0078 16.9472ZM58.349 107.993C30.5657 107.993 7.9624 85.3892 7.9624 57.606C7.9624 29.8227 30.5657 7.21936 58.349 7.21936C86.1323 7.21936 108.736 29.8227 108.736 57.606C108.736 85.3892 86.1323 107.993 58.349 107.993Z" fill="#F4EAE5"/>
<path d="M43.7812 79.9122L82.4013 57.6058L43.7812 35.2993V79.9122Z" fill="#F4EAE5"/>
</g>
<defs>
<clipPath id="clip0">
<rect width="115" height="115" fill="white" transform="translate(0.848999 0.105957)"/>
</clipPath>
</defs>
</svg>
