<svg width="70" height="71" viewBox="0 0 70 71" fill="none" xmlns="http://www.w3.org/2000/svg">
<g clip-path="url(#clip0)">
<path d="M18.9485 0.366516H51.0517C61.5 0.366516 70 8.86656 70 19.3148V51.4186C70 61.8663 61.5 70.3664 51.0517 70.3664H18.9479C8.50018 70.3664 0.000137329 61.8663 0.000137329 51.4186V19.3148C0.000137329 8.86656 8.50018 0.366516 18.9485 0.366516V0.366516ZM4.10383 51.4186C4.10383 59.6035 10.763 66.2627 18.9485 66.2627H51.0517C59.2372 66.2627 65.8963 59.6035 65.8963 51.4186V19.3148C65.8963 11.1294 59.2372 4.47021 51.0517 4.47021H18.9479C10.763 4.47021 4.10383 11.1294 4.10383 19.3148V51.4186Z" fill="#786F6F"/>
<path d="M35.0001 16.2264C45.5541 16.2264 54.1401 24.8124 54.1401 35.3664C54.1401 45.9205 45.5541 54.5065 35.0001 54.5065C24.4461 54.5065 15.86 45.9205 15.86 35.3664C15.86 24.8124 24.4461 16.2264 35.0001 16.2264ZM35.0001 50.4028C43.2908 50.4028 50.0364 43.6577 50.0364 35.3664C50.0364 27.0757 43.2908 20.3301 35.0001 20.3301C26.7089 20.3301 19.9637 27.0757 19.9637 35.3664C19.9637 43.6577 26.7089 50.4028 35.0001 50.4028Z" fill="#786F6F"/>
<path d="M15.4023 9.42892C18.5212 9.42892 21.058 11.9662 21.058 15.0846C21.058 18.2035 18.5212 20.7408 15.4023 20.7408C12.2834 20.7408 9.74614 18.2035 9.74614 15.0846C9.74614 11.9657 12.2834 9.42892 15.4023 9.42892ZM15.4023 16.6366C16.2579 16.6366 16.9543 15.9401 16.9543 15.0846C16.9543 14.2285 16.2579 13.5326 15.4023 13.5326C14.5462 13.5326 13.8498 14.2285 13.8498 15.0846C13.8498 15.9401 14.5462 16.6366 15.4023 16.6366Z" fill="#786F6F"/>
</g>
<defs>
<clipPath id="clip0">
<rect width="70" height="70" fill="white" transform="matrix(-1 0 0 1 70 0.366516)"/>
</clipPath>
</defs>
</svg>
