<svg width="116" height="86" viewBox="0 0 116 86" fill="none" xmlns="http://www.w3.org/2000/svg">
<path d="M27.6073 61.3756C21.3216 61.3756 16.21 66.569 16.21 72.955C16.21 79.3411 21.3216 84.5344 27.6073 84.5344C33.893 84.5344 39.0046 79.3411 39.0046 72.955C39.0046 66.569 33.8927 61.3756 27.6073 61.3756ZM27.6073 80.6745C23.4168 80.6745 20.0091 77.2123 20.0091 72.955C20.0091 68.6976 23.417 65.2355 27.6073 65.2355C31.7976 65.2355 35.2054 68.6978 35.2054 72.955C35.2054 77.2123 31.7976 80.6745 27.6073 80.6745Z" fill="#786F6F"/>
<path d="M92.1919 61.3756C85.9062 61.3756 80.7946 66.569 80.7946 72.955C80.7946 79.3411 85.9062 84.5344 92.1919 84.5344C98.4775 84.5344 103.589 79.3411 103.589 72.955C103.589 66.569 98.4775 61.3756 92.1919 61.3756ZM92.1919 80.6745C88.0014 80.6745 84.5937 77.2123 84.5937 72.955C84.5937 68.6976 88.0016 65.2355 92.1919 65.2355C96.3824 65.2355 99.79 68.6978 99.79 72.955C99.79 77.2123 96.3824 80.6745 92.1919 80.6745Z" fill="#786F6F"/>
<path d="M114.685 50.6821L97.5886 23.6635C97.2391 23.1115 96.6369 22.7776 95.9909 22.7776H75.096C74.0455 22.7776 73.1965 23.6423 73.1965 24.7075V72.9548C73.1965 74.0221 74.0455 74.8846 75.096 74.8846H82.6942V71.0248H76.9955V26.6375H94.9538L111.187 52.2935V71.0252H101.69V74.8849H113.087C114.137 74.8849 114.986 74.0223 114.986 72.955V51.7261C114.987 51.3575 114.882 50.9927 114.685 50.6821Z" fill="#786F6F"/>
<path d="M84.5939 47.8662V34.357H99.7904V30.4972H82.6944C81.6439 30.4972 80.7949 31.3618 80.7949 32.427V49.7961C80.7949 50.8633 81.6439 51.7259 82.6944 51.7259H111.188V47.866H84.5939V47.8662Z" fill="#786F6F"/>
<path d="M75.096 9.26846H2.91291C1.86444 9.26846 1.01343 10.1331 1.01343 11.1983V72.955C1.01343 74.0223 1.86444 74.8849 2.91291 74.8849H18.1094V71.025H4.81261V13.1281H73.1965V71.025H37.1049V74.8849H75.096C76.1465 74.8849 76.9955 74.0223 76.9955 72.955V11.1983C76.9955 10.1331 76.1465 9.26846 75.096 9.26846Z" fill="#786F6F"/>
<path d="M14.3103 63.3055H2.91296V67.1654H14.3103V63.3055Z" fill="#786F6F"/>
<path d="M73.1965 63.3055H40.9041V67.1654H73.1965V63.3055Z" fill="#786F6F"/>
<path d="M113.087 63.3055H105.489V67.1654H113.087V63.3055Z" fill="#786F6F"/>
<path d="M75.0959 16.988H8.61145V20.8478H75.0959V16.988Z" fill="#786F6F"/>
<path d="M29.5067 71.025H25.7075V74.8849H29.5067V71.025Z" fill="#786F6F"/>
<path d="M94.0917 71.025H90.2925V74.8849H94.0917V71.025Z" fill="#786F6F"/>
<path d="M35.2053 1.54871H8.61145V5.40858H35.2053V1.54871Z" fill="#786F6F"/>
<path d="M4.81261 1.54871H1.01343V5.40858H4.81261V1.54871Z" fill="#786F6F"/>
</svg>
