<svg width="101" height="101" viewBox="0 0 101 101" fill="none" xmlns="http://www.w3.org/2000/svg">
<g clip-path="url(#clip0)">
<path d="M58.5716 54.9517C58.0504 54.3328 57.1269 54.2529 56.5076 54.774C52.839 57.8609 47.7404 57.8627 44.1089 54.7783C43.4921 54.2547 42.5679 54.3303 42.0441 54.9467C41.5205 55.5633 41.5958 56.4877 42.2124 57.0115C44.5851 59.0265 47.4351 60.0338 50.291 60.0338C53.1441 60.0338 56.0031 59.0277 58.3941 57.0158C59.0127 56.4947 59.0923 55.5707 58.5716 54.9517Z" fill="#786F6F"/>
<path d="M61.9265 49.2816C62.7357 49.2816 63.3914 48.6258 63.3914 47.8168V44.8871C63.3914 44.0781 62.7357 43.4222 61.9265 43.4222C61.1173 43.4222 60.4617 44.0781 60.4617 44.8871V47.8168C60.4617 48.6258 61.1175 49.2816 61.9265 49.2816Z" fill="#786F6F"/>
<path d="M38.6843 43.4222C37.8753 43.4222 37.2195 44.0781 37.2195 44.8871V47.8168C37.2195 48.6258 37.8753 49.2816 38.6843 49.2816C39.4933 49.2816 40.1492 48.6258 40.1492 47.8168V44.8871C40.1492 44.0781 39.4933 43.4222 38.6843 43.4222Z" fill="#786F6F"/>
<path d="M69.5437 75.3558H65.9658C65.4515 73.5 63.7484 72.1332 61.7312 72.1332C61.2177 72.1332 60.7248 72.2226 60.2664 72.3851V69.3232C67.2232 66.2019 72.4625 59.9162 74.1441 52.3088H76.4773C80.5697 52.3088 83.8992 48.9793 83.8992 44.8869C83.8992 42.3099 82.5785 40.0365 80.5789 38.7052V34.2834C82.2838 33.6787 83.5086 32.0506 83.5086 30.1408V29.956C83.5086 27.0076 83.0672 24.1275 82.2183 21.3894C85.6597 19.3285 87.7615 15.6554 87.7615 11.5906C87.7617 5.28806 82.6341 0.160522 76.3314 0.160522C72.9683 0.160522 69.7861 1.65369 67.6246 4.19334C63.6634 2.20134 59.2629 1.14763 54.7004 1.14763C54.6965 1.14763 54.6927 1.14763 54.6888 1.14763L45.8998 1.15115C41.2654 1.15291 36.8841 2.25662 33.0015 4.2113C30.84 1.66072 27.6506 0.160522 24.2795 0.160522C17.9767 0.160522 12.8492 5.28806 12.8492 11.5906C12.8492 15.6595 14.9548 19.3357 18.4023 21.3955C17.5578 24.1021 17.1023 26.9787 17.1023 29.9595V30.141C17.1023 32.0508 18.3271 33.6789 20.032 34.2836V38.7054C18.0326 40.0365 16.7117 42.3101 16.7117 44.8871C16.7117 48.9795 20.0412 52.309 24.1336 52.309H26.4668C28.1484 59.9162 33.3877 66.2019 40.3445 69.3234V72.3806C39.8908 72.2211 39.4035 72.1334 38.8959 72.1334H38.8632C36.8492 72.1334 35.1492 73.501 34.641 75.356H31.0672C21.6437 75.356 13.9773 83.0224 13.9773 92.4459V94.7896C13.9773 97.7513 16.3867 100.161 19.3484 100.161H69.5437C70.3529 100.161 71.0086 99.5049 71.0086 98.6959C71.0086 97.8869 70.3529 97.231 69.5437 97.231H19.3484C18.0021 97.231 16.907 96.1359 16.907 94.7896V92.4459C16.907 84.6379 23.2591 78.2857 31.0672 78.2857H34.5554C35.2972 86.3246 42.0761 92.6412 50.3054 92.6412C58.5345 92.6412 65.3134 86.3246 66.0554 78.2857H69.5437C77.3517 78.2857 83.7039 84.6379 83.7039 92.4459V94.7896C83.7039 96.1359 82.6088 97.231 81.2625 97.231H76.3797C75.5705 97.231 74.9148 97.8869 74.9148 98.6959C74.9148 99.5049 75.5705 100.161 76.3797 100.161H81.2625C84.224 100.161 86.6336 97.7513 86.6336 94.7896V92.4459C86.6336 83.0222 78.9672 75.3558 69.5437 75.3558ZM76.4773 49.3793H74.6064C74.6802 48.6078 74.7195 47.8261 74.7195 47.0355V46.3519H76.575C77.3841 46.3519 78.0398 45.6961 78.0398 44.8871C78.0398 44.0781 77.3841 43.4222 76.575 43.4222H74.7195V40.3949H76.4773C78.9545 40.3949 80.9695 42.4101 80.9695 44.8871C80.9695 47.364 78.9545 49.3793 76.4773 49.3793ZM76.4773 37.4652H73.2547C72.4455 37.4652 71.7898 38.1211 71.7898 38.9301V43.4222H70.325C69.5447 43.4222 68.8601 42.6922 68.8601 41.8597V34.5355H77.6492V37.5586C77.2673 37.4978 76.8761 37.4652 76.4773 37.4652ZM78.3586 13.5068C77.3886 12.1181 76.29 10.8041 75.067 9.58142C74.966 9.48044 74.8633 9.3822 74.7611 9.28298C75.2189 8.97166 75.765 8.79841 76.3316 8.79841C77.8713 8.79841 79.1238 10.051 79.1238 11.5906C79.1236 12.3123 78.8392 12.9959 78.3586 13.5068ZM76.3314 3.09021C81.0185 3.09021 84.8318 6.90349 84.8318 11.5906C84.8318 14.4234 83.4586 17 81.1797 18.5748C80.8068 17.7076 80.3906 16.859 79.9324 16.0312C81.2492 14.9576 82.0531 13.3277 82.0531 11.5906C82.0531 8.43552 79.4861 5.86873 76.3312 5.86873C74.9156 5.86873 73.5632 6.39744 72.5254 7.32126C71.7834 6.73455 71.0166 6.18728 70.2275 5.68025C71.8177 4.04177 74.017 3.09021 76.3314 3.09021ZM15.7789 11.5906C15.7789 6.90349 19.5923 3.09021 24.2795 3.09021C26.6007 3.09021 28.8062 4.04744 30.3972 5.69529C29.6039 6.20427 28.8373 6.75134 28.0996 7.33337C27.0603 6.40154 25.7035 5.86873 24.2793 5.86873C21.1242 5.86873 18.5574 8.43552 18.5574 11.5906C18.5574 13.3476 19.3652 14.9752 20.6933 16.0455C20.2375 16.8685 19.8205 17.7158 19.4453 18.5853C17.1578 17.0115 15.7789 14.4299 15.7789 11.5906ZM22.2662 13.5234C21.7765 13.0125 21.4873 12.3248 21.4873 11.5906C21.4873 10.051 22.74 8.79841 24.2795 8.79841C24.8527 8.79841 25.4037 8.97537 25.864 9.29275C24.5345 10.5828 23.3289 11.9996 22.2662 13.5234ZM22.9617 34.5355H31.7507V41.8597C31.7507 42.6922 31.0662 43.4222 30.2859 43.4222H28.8211V38.9301C28.8211 38.1211 28.1652 37.4652 27.3562 37.4652H24.1336C23.7347 37.4652 23.3435 37.4978 22.9617 37.5586V34.5355ZM24.1336 49.3793C21.6566 49.3793 19.6414 47.364 19.6414 44.8871C19.6414 42.4101 21.6566 40.3949 24.1336 40.3949H25.8914V43.4222H24.0359C23.2269 43.4222 22.5711 44.0781 22.5711 44.8871C22.5711 45.6961 23.2269 46.3519 24.0359 46.3519H25.8914V47.0355C25.8914 47.8261 25.9306 48.6078 26.0045 49.3793H24.1336ZM28.8211 47.0355V46.3519H30.2859C32.6679 46.3519 34.6804 44.2947 34.6804 41.8597V33.0707C34.6804 32.6822 34.5261 32.3095 34.2513 32.0349C33.9767 31.7601 33.6041 31.6058 33.2156 31.6058H21.4968C20.689 31.6058 20.032 30.9488 20.032 30.141V29.9595C20.032 15.6953 31.6369 4.08611 45.9009 4.08064L54.69 4.07712H54.7004C61.6105 4.07712 68.108 6.76775 72.9957 11.6535C77.8857 16.5418 80.5789 23.0418 80.5789 29.9562V30.141C80.5789 30.9488 79.9218 31.6058 79.114 31.6058H40.0515C39.2425 31.6058 38.5867 32.2617 38.5867 33.0707C38.5867 33.8797 39.2425 34.5355 40.0515 34.5355H65.9304V41.8597C65.9304 44.2947 67.9429 46.3519 70.325 46.3519H71.7898V47.0355C71.7898 58.882 62.1519 68.5199 50.3054 68.5199C38.459 68.5199 28.8211 58.882 28.8211 47.0355ZM50.3054 71.4496C52.749 71.4496 55.109 71.0871 57.3367 70.416V76.5277V76.8207C57.3367 80.6978 54.1826 83.8519 50.3054 83.8519C46.4283 83.8519 43.2742 80.6978 43.2742 76.8207V76.5115V70.416C45.5019 71.0871 47.8621 71.4496 50.3054 71.4496ZM63.1961 76.8207C63.1961 83.9287 57.4134 89.7113 50.3054 89.7113C43.1974 89.7113 37.4148 83.9287 37.4148 76.8207V76.5115C37.4148 75.7129 38.0646 75.0629 38.8634 75.0629H38.8961C39.6947 75.0629 40.3447 75.7127 40.3447 76.5115V76.8207C40.3447 82.3133 44.8131 86.7816 50.3056 86.7816C55.798 86.7816 60.2666 82.3133 60.2666 76.8207V76.5277C60.2666 75.7199 60.9236 75.0629 61.7314 75.0629C62.5392 75.0629 63.1963 75.7199 63.1963 76.5277V76.8207H63.1961Z" fill="#786F6F"/>
<path d="M50.3054 28.6761C55.475 28.6761 59.6804 24.4705 59.6804 19.3011C59.6804 14.1318 55.475 9.92615 50.3054 9.92615C45.1361 9.92615 40.9304 14.1318 40.9304 19.3011C40.9304 24.4705 45.1361 28.6761 50.3054 28.6761ZM50.3054 12.8558C53.8593 12.8558 56.7507 15.7472 56.7507 19.3011C56.7507 22.3511 54.6205 24.9113 51.7703 25.5765V21.0248C52.931 20.8369 53.821 19.8306 53.821 18.6176C53.821 17.2713 52.7259 16.1761 51.3796 16.1761H49.2312C47.8849 16.1761 46.7898 17.2713 46.7898 18.6176C46.7898 19.8304 47.6798 20.8369 48.8406 21.0248V25.5765C45.9904 24.9113 43.8601 22.3511 43.8601 19.3011C43.8601 15.7472 46.7515 12.8558 50.3054 12.8558Z" fill="#786F6F"/>
<path d="M67.3953 21.5472C68.2044 21.5472 68.8601 20.8914 68.8601 20.0824V17.1527C68.8601 16.3437 68.2044 15.6879 67.3953 15.6879C66.5861 15.6879 65.9304 16.3437 65.9304 17.1527V20.0824C65.9304 20.8914 66.5863 21.5472 67.3953 21.5472Z" fill="#786F6F"/>
<path d="M33.2156 15.6879C32.4066 15.6879 31.7507 16.3437 31.7507 17.1527V20.0824C31.7507 20.8914 32.4066 21.5472 33.2156 21.5472C34.0246 21.5472 34.6804 20.8914 34.6804 20.0824V17.1527C34.6804 16.3437 34.0246 15.6879 33.2156 15.6879Z" fill="#786F6F"/>
</g>
<defs>
<clipPath id="clip0">
<rect width="100" height="100" fill="white" transform="translate(0.30542 0.160522)"/>
</clipPath>
</defs>
</svg>
